 <svg width="150" height="150" viewBox="3 1.5 26 26" fill="none" xmlns="http://www.w3.org/2000/svg">
  <path d="M6 11C6 7.69 8.69 5 12 5H20C23.31 5 26 7.69 26 11V12H6V11Z" fill="#E8A04B"/>
  <circle cx="11" cy="9" r="0.7" fill="#FBE3B8"/>
  <circle cx="15" cy="8" r="0.7" fill="#FBE3B8"/>
  <circle cx="19" cy="9" r="0.7" fill="#FBE3B8"/>
  <circle cx="13" cy="10.4" r="0.7" fill="#FBE3B8"/>
  <circle cx="17.5" cy="10.4" r="0.7" fill="#FBE3B8"/>
  <path d="M5 12.4C5 12.18 5.18 12 5.4 12H26.6C26.82 12 27 12.18 27 12.4V13.2C27 14.5 25.95 15.5 24.7 15.5C23.9 15.5 23.2 15 22.4 15C21.6 15 20.9 15.5 20.1 15.5C19.3 15.5 18.6 15 17.8 15C17 15 16.3 15.5 15.5 15.5C14.7 15.5 14 15 13.2 15C12.4 15 11.7 15.5 10.9 15.5C10.1 15.5 9.4 15 8.6 15C7.8 15 7.1 15.5 6.3 15.5C5.95 15.5 5 14.8 5 13.2V12.4Z" fill="#7BB661"/>
  <rect x="6" y="15.4" width="20" height="2.4" rx="1.2" fill="#F2C94C"/>
  <path d="M6 16.5L9 18.6L12 16.5L15 18.6L18 16.5L21 18.6L24 16.5L26 18V18.2C26 18.42 25.82 18.6 25.6 18.6H6.4C6.18 18.6 6 18.42 6 18.2V16.5Z" fill="#F2C94C"/>
  <rect x="5.6" y="17.6" width="20.8" height="3.6" rx="1.6" fill="#8B4A2F"/>
  <path d="M6 21C6 22.66 7.34 24 9 24H23C24.66 24 26 22.66 26 21V21H6V21Z" fill="#D98A3D"/>
</svg>
 